# xmcd
#
# Track frame offsets:
# 150
# 12677
# 32265
# 52272
# 64770
# 78447
# 93167
# 113880
# 126855
# 140542
#
# Disc length: 2024 seconds
#
#
# Revision: 3
# Processed by: cddbd v1.5.2PL0 Copyright (c) Steve Scherf et al.
# Submitted via: FreeRIP 2.90 
#
DISCID=8507e60a
DTITLE=Porca Veia - Do Jeito que Deu
DYEAR=1900
DGENRE=Gaúcha
TTITLE0=Bailao popular
TTITLE1=Sanga do tempo
TTITLE2=Conversa fiado
TTITLE3=Do jeito que deu
TTITLE4=Morena dos olhos verdes
TTITLE5=Sentimento de trovador
TTITLE6=Caminhos que me levam a ti
TTITLE7=Cavalo tostado
TTITLE8=Chasque para um parceiro
TTITLE9=Morena solteira
EXTD=
EXTT0=
EXTT1=
EXTT2=
EXTT3=
EXTT4=
EXTT5=
EXTT6=
EXTT7=
EXTT8=
EXTT9=
PLAYORDER=
